<?xml version="1.0" encoding="UTF-8" standalone="no"?>
<!-- Created with Inkscape (http://www.inkscape.org/) -->

<svg
   xmlns:dc="http://purl.org/dc/elements/1.1/"
   xmlns:cc="http://creativecommons.org/ns#"
   xmlns:rdf="http://www.w3.org/1999/02/22-rdf-syntax-ns#"
   xmlns:svg="http://www.w3.org/2000/svg"
   xmlns="http://www.w3.org/2000/svg"
   xmlns:sodipodi="http://sodipodi.sourceforge.net/DTD/sodipodi-0.dtd"
   xmlns:inkscape="http://www.inkscape.org/namespaces/inkscape"
   width="210mm"
   height="297mm"
   id="svg6573"
   version="1.1"
   inkscape:version="0.48.4 r9939"
   sodipodi:docname="Nuevo documento 15">
  <defs
     id="defs6575" />
  <sodipodi:namedview
     id="base"
     pagecolor="#ffffff"
     bordercolor="#666666"
     borderopacity="1.0"
     inkscape:pageopacity="0.0"
     inkscape:pageshadow="2"
     inkscape:zoom="0.35"
     inkscape:cx="350"
     inkscape:cy="520"
     inkscape:document-units="px"
     inkscape:current-layer="layer1"
     showgrid="false"
     inkscape:window-width="1857"
     inkscape:window-height="1056"
     inkscape:window-x="63"
     inkscape:window-y="24"
     inkscape:window-maximized="1" />
  <metadata
     id="metadata6578">
    <rdf:RDF>
      <cc:Work
         rdf:about="">
        <dc:format>image/svg+xml</dc:format>
        <dc:type
           rdf:resource="http://purl.org/dc/dcmitype/StillImage" />
        <dc:title></dc:title>
      </cc:Work>
    </rdf:RDF>
  </metadata>
  <g
     inkscape:label="Capa 1"
     inkscape:groupmode="layer"
     id="layer1">
    <path
       sodipodi:type="arc"
       style="fill:#3737c8;fill-opacity:1"
       id="path6581"
       sodipodi:cx="371.42856"
       sodipodi:cy="516.64789"
       sodipodi:rx="474.28571"
       sodipodi:ry="270.00003"
       d="m 845.71426,516.64789 a 474.28571,270.00003 0 1 1 -948.57141,0 474.28571,270.00003 0 1 1 948.57141,0 z"
       transform="translate(-105.71429,-245.71429)" />
    <path
       sodipodi:type="arc"
       style="fill:#ff2a7f;fill-opacity:1"
       id="path6583"
       sodipodi:cx="217.14285"
       sodipodi:cy="560.93359"
       sodipodi:rx="471.42856"
       sodipodi:ry="197.14285"
       d="m 688.57141,560.93359 a 471.42856,197.14285 0 1 1 -942.85712,0 471.42856,197.14285 0 1 1 942.85712,0 z" />
    <path
       sodipodi:type="arc"
       style="fill:#ff00cc;fill-opacity:1"
       id="path6585"
       sodipodi:cx="165.71428"
       sodipodi:cy="856.64789"
       sodipodi:rx="497.14285"
       sodipodi:ry="155.71428"
       d="m 662.85713,856.64789 a 497.14285,155.71428 0 1 1 -994.2857,0 497.14285,155.71428 0 1 1 994.2857,0 z" />
    <path
       sodipodi:type="arc"
       style="fill:#7f2aff;fill-opacity:1"
       id="path6587"
       sodipodi:cx="25.714285"
       sodipodi:cy="158.07646"
       sodipodi:rx="162.85715"
       sodipodi:ry="877.14288"
       d="m 188.57143,158.07646 a 162.85715,877.14288 0 1 1 -325.71429,0 162.85715,877.14288 0 1 1 325.71429,0 z" />
    <path
       sodipodi:type="arc"
       style="fill:#c837ab;fill-opacity:1"
       id="path6589"
       sodipodi:cx="287.14285"
       sodipodi:cy="-30.494961"
       sodipodi:rx="532.85712"
       sodipodi:ry="214.28572"
       d="m 819.99997,-30.494961 a 532.85712,214.28572 0 1 1 -1065.71423,0 532.85712,214.28572 0 1 1 1065.71423,0 z" />
    <path
       sodipodi:type="arc"
       style="fill:#1f241c;fill-opacity:1"
       id="path6591"
       sodipodi:cx="328.57144"
       sodipodi:cy="219.50504"
       sodipodi:rx="25.714285"
       sodipodi:ry="230"
       d="m 354.28573,219.50504 a 25.714285,230 0 1 1 -51.42857,0 25.714285,230 0 1 1 51.42857,0 z" />
    <path
       sodipodi:type="arc"
       style="fill:#55ddff;fill-opacity:1"
       id="path6593"
       sodipodi:cx="-140"
       sodipodi:cy="722.36218"
       sodipodi:rx="477.14285"
       sodipodi:ry="135.71428"
       d="m 337.14285,722.36218 a 477.14285,135.71428 0 1 1 -954.2857,0 477.14285,135.71428 0 1 1 954.2857,0 z" />
    <path
       sodipodi:type="arc"
       style="fill:#2aff2a;fill-opacity:1"
       id="path6595"
       sodipodi:cx="541.42859"
       sodipodi:cy="780.93359"
       sodipodi:rx="90"
       sodipodi:ry="340"
       d="m 631.42859,780.93359 a 90,340 0 1 1 -180,0 90,340 0 1 1 180,0 z" />
    <path
       sodipodi:type="arc"
       style="fill:#ac939d;fill-opacity:1"
       id="path6597"
       sodipodi:cx="708.57141"
       sodipodi:cy="-357.63782"
       sodipodi:rx="60"
       sodipodi:ry="598.57141"
       d="m 768.57141,-357.63782 a 60,598.57141 0 1 1 -120,0 60,598.57141 0 1 1 120,0 z" />
  </g>
</svg>
