<?xml version="1.0" encoding="UTF-8" standalone="no"?>
<!-- Created with Inkscape (http://www.inkscape.org/) -->

<svg
   xmlns:dc="http://purl.org/dc/elements/1.1/"
   xmlns:cc="http://creativecommons.org/ns#"
   xmlns:rdf="http://www.w3.org/1999/02/22-rdf-syntax-ns#"
   xmlns:svg="http://www.w3.org/2000/svg"
   xmlns="http://www.w3.org/2000/svg"
   xmlns:xlink="http://www.w3.org/1999/xlink"
   xmlns:sodipodi="http://sodipodi.sourceforge.net/DTD/sodipodi-0.dtd"
   xmlns:inkscape="http://www.inkscape.org/namespaces/inkscape"
   width="210mm"
   height="297mm"
   id="svg3820"
   version="1.1"
   inkscape:version="0.48.4 r9939"
   sodipodi:docname="fondo2.svg">
  <defs
     id="defs3">
    <inkscape:perspective
       sodipodi:type="inkscape:persp3d"
       inkscape:vp_x="708.57143 : 186.18109 : 1"
       inkscape:vp_y="0 : 1000 : 0"
       inkscape:vp_z="806.95162 : 1109.0382 : 1"
       inkscape:persp3d-origin="372.04724 : 350.78739 : 1"
       id="perspective3826" />
  </defs>
  <sodipodi:namedview
     inkscape:document-units="mm"
     id="base"
     pagecolor="#819FF7"
     bordercolor="#666666"
     borderopacity="1.0"
     inkscape:pageopacity="0.0"
     inkscape:pageshadow="2"
     inkscape:zoom="0.35"
     inkscape:cx="-12.857143"
     inkscape:cy="520"
     inkscape:current-layer="layer1"
     showgrid="false"
     inkscape:window-width="1857"
     inkscape:window-height="1056"
     inkscape:window-x="63"
     inkscape:window-y="24"
     inkscape:window-maximized="1" />
  <metadata
     id="metadata4">
    <rdf:RDF>
      <cc:Work
         rdf:about="">
        <dc:format>image/svg+xml</dc:format>
        <dc:type
           rdf:resource="http://purl.org/dc/dcmitype/StillImage" />
        <dc:title></dc:title>
      </cc:Work>
    </rdf:RDF>
  </metadata>
  <g
     inkscape:label="Layer 1"
     inkscape:groupmode="layer"
     id="layer1">
    <g
       sodipodi:type="inkscape:box3d"
       style="fill:#cd87de;fill-opacity:1"
       id="g3828"
       inkscape:perspectiveID="#perspective3826"
       inkscape:corner0="0.38528227 : 0.43514864 : 0 : 1"
       inkscape:corner7="-0.22948796 : 0.1179729 : 1.0156374 : 1">
      <path
         sodipodi:type="inkscape:box3dside"
         id="path3834"
         style="fill:#cd87de;fill-rule:evenodd;stroke:none"
         inkscape:box3dsidetype="3"
         d="M 465.64319,433.23327 271.81746,87.796189 l 0,411.642811 193.82573,162.75536 z" />
      <path
         sodipodi:type="inkscape:box3dside"
         id="path3830"
         style="fill:#cd87de;fill-rule:evenodd;stroke:none"
         inkscape:box3dsidetype="6"
         d="m 465.64319,433.23327 0,228.96109 144.38034,-304.09665 0,-132.10594 z" />
      <path
         sodipodi:type="inkscape:box3dside"
         id="path3832"
         style="fill:#cd87de;fill-rule:evenodd;stroke:none"
         inkscape:box3dsidetype="5"
         d="M 465.64319,433.23327 271.81746,87.796189 576.10458,5.6466371 610.02353,225.99177 z" />
      <path
         sodipodi:type="inkscape:box3dside"
         id="path3840"
         style="fill:#cd87de;fill-rule:evenodd;stroke:none"
         inkscape:box3dsidetype="11"
         d="M 610.02353,225.99177 576.10458,5.6466371 l 0,177.5751429 33.91895,174.87593 z" />
      <path
         sodipodi:type="inkscape:box3dside"
         id="path3838"
         style="fill:#cd87de;fill-rule:evenodd;stroke:none"
         inkscape:box3dsidetype="13"
         d="M 465.64319,662.19436 271.81746,499.439 576.10458,183.22178 610.02353,358.09771 z" />
      <path
         sodipodi:type="inkscape:box3dside"
         id="path3836"
         style="fill:#cd87de;fill-rule:evenodd;stroke:none"
         inkscape:box3dsidetype="14"
         d="m 271.81746,87.796189 0,411.642811 304.28712,-316.21722 0,-177.5751429 z" />
    </g>
    <g
       sodipodi:type="inkscape:box3d"
       style="fill:#ffe6d5;fill-opacity:1"
       id="g3842"
       inkscape:perspectiveID="#perspective3826"
       inkscape:corner0="-0.30365489 : 0.12193396 : 0 : 1"
       inkscape:corner7="-0.33562993 : 0.12135059 : 0.25 : 1">
      <path
         sodipodi:type="inkscape:box3dside"
         id="path3848"
         style="fill:#8686bf;fill-rule:evenodd;stroke:none"
         inkscape:box3dsidetype="3"
         d="m 225.29929,454.68935 -23.25909,-19.80442 0,0.87808 23.25909,19.7641 z" />
      <path
         sodipodi:type="inkscape:box3dside"
         id="path3844"
         style="fill:#353564;fill-rule:evenodd;stroke:none"
         inkscape:box3dsidetype="6"
         d="m 225.29929,454.68935 0,0.83776 153.65756,-135.31087 0,-0.61644 z" />
      <path
         sodipodi:type="inkscape:box3dside"
         id="path3846"
         style="fill:#4d4d9f;fill-rule:evenodd;stroke:none"
         inkscape:box3dsidetype="5"
         d="M 225.29929,454.68935 202.0402,434.88493 367.43041,300.48614 378.95685,319.5998 z" />
      <path
         sodipodi:type="inkscape:box3dside"
         id="path3854"
         style="fill:#e9e9ff;fill-rule:evenodd;stroke:none"
         inkscape:box3dsidetype="11"
         d="m 378.95685,319.5998 -11.52644,-19.11366 0,0.638 11.52644,19.0921 z" />
      <path
         sodipodi:type="inkscape:box3dside"
         id="path3852"
         style="fill:#afafde;fill-rule:evenodd;stroke:none"
         inkscape:box3dsidetype="13"
         d="m 225.29929,455.52711 -23.25909,-19.7641 165.39021,-134.63887 11.52644,19.0921 z" />
      <path
         sodipodi:type="inkscape:box3dside"
         id="path3850"
         style="fill:#d7d7ff;fill-rule:evenodd;stroke:none"
         inkscape:box3dsidetype="14"
         d="m 202.0402,434.88493 0,0.87808 165.39021,-134.63887 0,-0.638 z" />
    </g>
    <path
       sodipodi:type="star"
       style="fill:#d5d5ff;fill-opacity:1"
       id="path3856"
       sodipodi:sides="5"
       sodipodi:cx="-188.57143"
       sodipodi:cy="638.07648"
       sodipodi:r1="24.411436"
       sodipodi:r2="436.12515"
       sodipodi:arg1="-0.3587707"
       sodipodi:arg2="0.26954783"
       inkscape:flatsided="false"
       inkscape:rounded="0"
       inkscape:randomized="0"
       d="M -165.71429,629.50505 231.80586,754.2147 -173.35627,657.16619 -169.12171,1073.7677 -202.02508,658.446 -596.92813,791.21025 -212.1014,631.57582 -460.39946,297.02712 -189.66009,613.68933 51.786309,274.1626 z"
       inkscape:transform-center-x="-1.2578988"
       inkscape:transform-center-y="1.3114748"
       transform="matrix(0.57939286,0,0,0.61052204,574.64206,395.35172)" />
    <path
       sodipodi:type="star"
       style="fill:#ff9955;fill-opacity:1"
       id="path3856-4"
       sodipodi:sides="5"
       sodipodi:cx="-188.57143"
       sodipodi:cy="638.07648"
       sodipodi:r1="24.411436"
       sodipodi:r2="436.12515"
       sodipodi:arg1="-0.3587707"
       sodipodi:arg2="0.26954783"
       inkscape:flatsided="false"
       inkscape:rounded="0"
       inkscape:randomized="0"
       d="M -165.71429,629.50505 231.80586,754.2147 -173.35627,657.16619 -169.12171,1073.7677 -202.02508,658.446 -596.92813,791.21025 -212.1014,631.57582 -460.39946,297.02712 -189.66009,613.68933 51.786309,274.1626 z"
       inkscape:transform-center-x="-1.2578988"
       inkscape:transform-center-y="1.3114748"
       transform="matrix(0.57939286,0,0,0.61052204,800.06033,1183.7487)" />
    <path
       sodipodi:type="star"
       style="fill:#c837ab;fill-opacity:1"
       id="path3856-7"
       sodipodi:sides="5"
       sodipodi:cx="-188.57143"
       sodipodi:cy="638.07648"
       sodipodi:r1="24.411436"
       sodipodi:r2="436.12515"
       sodipodi:arg1="-0.3587707"
       sodipodi:arg2="0.26954783"
       inkscape:flatsided="false"
       inkscape:rounded="0"
       inkscape:randomized="0"
       d="M -165.71429,629.50505 231.80586,754.2147 -173.35627,657.16619 -169.12171,1073.7677 -202.02508,658.446 -596.92813,791.21025 -212.1014,631.57582 -460.39946,297.02712 -189.66009,613.68933 51.786309,274.1626 z"
       inkscape:transform-center-x="-1.2578988"
       inkscape:transform-center-y="1.3114748"
       transform="matrix(0.57939286,0,0,0.61052204,157.2032,-273.39412)" />
    <use
       id="use4009"
       xlink:href="#path3856-7"
       x="0"
       y="0"
       width="744.09448"
       height="1052.3622"
       transform="translate(-48.62542,-44.797261)" />
    <use
       id="use4011"
       xlink:href="#path3856-7"
       x="0"
       y="0"
       width="744.09448"
       height="1052.3622"
       transform="translate(53.867963,-106.17943)" />
    <use
       id="use4013"
       xlink:href="#path3856-7"
       x="0"
       y="0"
       width="744.09448"
       height="1052.3622"
       transform="translate(12.042501,-12.650892)" />
    <use
       id="use4015"
       xlink:href="#path3856-7"
       x="0"
       y="0"
       width="744.09448"
       height="1052.3622"
       transform="translate(56.970602,26.922921)" />
    <use
       id="use4017"
       xlink:href="#path3856-7"
       x="0"
       y="0"
       width="744.09448"
       height="1052.3622"
       transform="translate(154.41242,-67.456963)" />
    <use
       id="use4019"
       xlink:href="#path3856-7"
       x="0"
       y="0"
       width="744.09448"
       height="1052.3622"
       transform="translate(63.078462,22.859445)" />
    <use
       id="use4021"
       xlink:href="#path3856-7"
       x="0"
       y="0"
       width="744.09448"
       height="1052.3622"
       transform="translate(-19.941351,0.04848844)" />
    <use
       id="use4023"
       xlink:href="#path3856-7"
       x="0"
       y="0"
       width="744.09448"
       height="1052.3622"
       transform="translate(-6.6333722,-43.611692)" />
    <use
       id="use4025"
       xlink:href="#path3856-7"
       x="0"
       y="0"
       width="744.09448"
       height="1052.3622"
       transform="translate(76.141642,-60.507131)" />
    <use
       id="use4027"
       xlink:href="#path3856-7"
       x="0"
       y="0"
       width="744.09448"
       height="1052.3622"
       transform="translate(131.38119,11.217232)" />
    <use
       id="use4029"
       xlink:href="#path3856-7"
       x="0"
       y="0"
       width="744.09448"
       height="1052.3622"
       transform="translate(101.7569,-7.5278485)" />
    <use
       id="use4031"
       xlink:href="#path3856-7"
       x="0"
       y="0"
       width="744.09448"
       height="1052.3622"
       transform="translate(148.1309,-105.38169)" />
    <use
       id="use4033"
       xlink:href="#path3856-7"
       x="0"
       y="0"
       width="744.09448"
       height="1052.3622"
       transform="translate(35.557862,-23.159054)" />
    <use
       id="use4035"
       xlink:href="#path3856-7"
       x="0"
       y="0"
       width="744.09448"
       height="1052.3622"
       transform="translate(93.588115,0.94447079)" />
    <use
       id="use4037"
       xlink:href="#path3856-7"
       x="0"
       y="0"
       width="744.09448"
       height="1052.3622"
       transform="translate(97.72165,3.9142939)" />
    <use
       id="use4039"
       xlink:href="#path3856-7"
       x="0"
       y="0"
       width="744.09448"
       height="1052.3622"
       transform="translate(105.71674,-30.246859)" />
    <use
       id="use4041"
       xlink:href="#path3856-7"
       x="0"
       y="0"
       width="744.09448"
       height="1052.3622"
       transform="translate(146.19644,18.83447)" />
    <use
       id="use4043"
       xlink:href="#path3856-7"
       x="0"
       y="0"
       width="744.09448"
       height="1052.3622"
       transform="translate(255.19146,-38.412925)" />
    <use
       id="use4045"
       xlink:href="#path3856-7"
       x="0"
       y="0"
       width="744.09448"
       height="1052.3622"
       transform="translate(189.71525,0.11836204)" />
    <use
       id="use4047"
       xlink:href="#path3856-7"
       x="0"
       y="0"
       width="744.09448"
       height="1052.3622"
       transform="translate(192.49718,-59.547592)" />
    <use
       id="use4049"
       xlink:href="#path3856-7"
       x="0"
       y="0"
       width="744.09448"
       height="1052.3622"
       transform="translate(271.06287,-61.00527)" />
    <use
       id="use4051"
       xlink:href="#path3856-7"
       x="0"
       y="0"
       width="744.09448"
       height="1052.3622"
       transform="translate(180.04001,-111.0223)" />
    <use
       id="use4053"
       xlink:href="#path3856-7"
       x="0"
       y="0"
       width="744.09448"
       height="1052.3622"
       transform="translate(251.92893,-19.858307)" />
    <use
       id="use4055"
       xlink:href="#path3856-7"
       x="0"
       y="0"
       width="744.09448"
       height="1052.3622"
       transform="translate(240.00724,5.4695296)" />
    <use
       id="use4057"
       xlink:href="#path3856-7"
       x="0"
       y="0"
       width="744.09448"
       height="1052.3622"
       transform="translate(278.57296,-128.09383)" />
    <use
       id="use4059"
       xlink:href="#path3856-7"
       x="0"
       y="0"
       width="744.09448"
       height="1052.3622"
       transform="translate(195.44648,-96.690813)" />
    <use
       id="use4061"
       xlink:href="#path3856-7"
       x="0"
       y="0"
       width="744.09448"
       height="1052.3622"
       transform="translate(255.198,-25.102722)" />
    <use
       id="use4063"
       xlink:href="#path3856-7"
       x="0"
       y="0"
       width="744.09448"
       height="1052.3622"
       transform="translate(343.78988,-44.572219)" />
    <use
       id="use4065"
       xlink:href="#path3856-7"
       x="0"
       y="0"
       width="744.09448"
       height="1052.3622"
       transform="translate(361.70079,-33.513767)" />
    <use
       id="use4067"
       xlink:href="#path3856-7"
       x="0"
       y="0"
       width="744.09448"
       height="1052.3622"
       transform="translate(267.58893,-32.435799)" />
    <use
       id="use4069"
       xlink:href="#path3856-7"
       x="0"
       y="0"
       width="744.09448"
       height="1052.3622"
       transform="translate(293.24981,-97.901365)" />
    <use
       id="use4071"
       xlink:href="#path3856-7"
       x="0"
       y="0"
       width="744.09448"
       height="1052.3622"
       transform="translate(354.70981,-56.84645)" />
    <use
       id="use4073"
       xlink:href="#path3856-7"
       x="0"
       y="0"
       width="744.09448"
       height="1052.3622"
       transform="translate(357.45657,-112.24783)" />
    <use
       id="use4075"
       xlink:href="#path3856-7"
       x="0"
       y="0"
       width="744.09448"
       height="1052.3622"
       transform="translate(413.66918,-127.47164)" />
    <use
       id="use4077"
       xlink:href="#path3856-7"
       x="0"
       y="0"
       width="744.09448"
       height="1052.3622"
       transform="translate(305.81192,-174.37557)" />
    <use
       id="use4079"
       xlink:href="#path3856-7"
       x="0"
       y="0"
       width="744.09448"
       height="1052.3622"
       transform="translate(373.35417,-80.987189)" />
    <use
       id="use4081"
       xlink:href="#path3856-7"
       x="0"
       y="0"
       width="744.09448"
       height="1052.3622"
       transform="translate(351.11921,-134.33037)" />
    <use
       id="use4083"
       xlink:href="#path3856-7"
       x="0"
       y="0"
       width="744.09448"
       height="1052.3622"
       transform="translate(271.23595,-39.019039)" />
    <use
       id="use4085"
       xlink:href="#path3856-7"
       x="0"
       y="0"
       width="744.09448"
       height="1052.3622"
       transform="translate(278.2257,-157.43028)" />
    <use
       id="use4087"
       xlink:href="#path3856-7"
       x="0"
       y="0"
       width="744.09448"
       height="1052.3622"
       transform="translate(280.87034,-129.31475)" />
    <use
       id="use4089"
       xlink:href="#path3856-7"
       x="0"
       y="0"
       width="744.09448"
       height="1052.3622"
       transform="translate(216.86883,-123.26095)" />
    <use
       id="use4091"
       xlink:href="#path3856-7"
       x="0"
       y="0"
       width="744.09448"
       height="1052.3622"
       transform="translate(238.43506,51.88984)" />
    <use
       id="use4093"
       xlink:href="#path3856-7"
       x="0"
       y="0"
       width="744.09448"
       height="1052.3622"
       transform="translate(211.1441,29.751052)" />
    <use
       id="use4095"
       xlink:href="#path3856-7"
       x="0"
       y="0"
       width="744.09448"
       height="1052.3622"
       transform="translate(119.69122,-1.2373678)" />
    <use
       id="use4097"
       xlink:href="#path3856-7"
       x="0"
       y="0"
       width="744.09448"
       height="1052.3622"
       transform="translate(78.715315,94.9149)" />
    <use
       id="use4099"
       xlink:href="#path3856-7"
       x="0"
       y="0"
       width="744.09448"
       height="1052.3622"
       transform="translate(97.137582,-67.61141)" />
    <use
       id="use4101"
       xlink:href="#path3856-7"
       x="0"
       y="0"
       width="744.09448"
       height="1052.3622"
       transform="translate(10.495229,74.099215)" />
    <use
       id="use4103"
       xlink:href="#path3856-7"
       x="0"
       y="0"
       width="744.09448"
       height="1052.3622"
       transform="translate(38.336035,-49.854418)" />
    <use
       id="use4105"
       xlink:href="#path3856-7"
       x="0"
       y="0"
       width="744.09448"
       height="1052.3622"
       transform="translate(84.745885,39.009632)" />
    <use
       id="use4107"
       xlink:href="#path3856-7"
       x="0"
       y="0"
       width="744.09448"
       height="1052.3622"
       transform="translate(2.625944,74.431235)" />
    <use
       id="use4109"
       xlink:href="#path3856-7"
       x="0"
       y="0"
       width="744.09448"
       height="1052.3622"
       transform="translate(16.748887,60.102451)" />
    <use
       id="use4111"
       xlink:href="#path3856-7"
       x="0"
       y="0"
       width="744.09448"
       height="1052.3622"
       transform="translate(-181.74957,74.075471)" />
    <use
       id="use4113"
       xlink:href="#path3856-7"
       x="0"
       y="0"
       width="744.09448"
       height="1052.3622"
       transform="translate(-187.31962,172.20168)" />
    <use
       id="use4115"
       xlink:href="#path3856-7"
       x="0"
       y="0"
       width="744.09448"
       height="1052.3622"
       transform="translate(-264.99531,207.10819)" />
    <use
       id="use4117"
       xlink:href="#path3856-7"
       x="0"
       y="0"
       width="744.09448"
       height="1052.3622"
       transform="translate(-156.18418,298.64771)" />
    <use
       id="use4119"
       xlink:href="#path3856-7"
       x="0"
       y="0"
       width="744.09448"
       height="1052.3622"
       transform="translate(-319.80991,289.05737)" />
    <use
       id="use4121"
       xlink:href="#path3856-7"
       x="0"
       y="0"
       width="744.09448"
       height="1052.3622"
       transform="translate(-240.06876,342.70199)" />
    <use
       id="use4123"
       xlink:href="#path3856-7"
       x="0"
       y="0"
       width="744.09448"
       height="1052.3622"
       transform="translate(-276.34319,261.16765)" />
    <use
       id="use4125"
       xlink:href="#path3856-7"
       x="0"
       y="0"
       width="744.09448"
       height="1052.3622"
       transform="translate(-327.26373,256.25014)" />
    <use
       id="use4127"
       xlink:href="#path3856-7"
       x="0"
       y="0"
       width="744.09448"
       height="1052.3622"
       transform="translate(-326.55129,271.05311)" />
    <use
       id="use4129"
       xlink:href="#path3856-7"
       x="0"
       y="0"
       width="744.09448"
       height="1052.3622"
       transform="translate(-323.2937,303.88555)" />
    <use
       id="use4131"
       xlink:href="#path3856-7"
       x="0"
       y="0"
       width="744.09448"
       height="1052.3622"
       transform="translate(-370.27577,307.93243)" />
    <use
       id="use4133"
       xlink:href="#path3856-7"
       x="0"
       y="0"
       width="744.09448"
       height="1052.3622"
       transform="translate(-361.95237,417.09707)" />
    <use
       id="use4135"
       xlink:href="#path3856-7"
       x="0"
       y="0"
       width="744.09448"
       height="1052.3622"
       transform="translate(-395.55951,362.65984)" />
    <use
       id="use4137"
       xlink:href="#path3856-7"
       x="0"
       y="0"
       width="744.09448"
       height="1052.3622"
       transform="translate(-308.46317,331.91446)" />
    <use
       id="use4139"
       xlink:href="#path3856-7"
       x="0"
       y="0"
       width="744.09448"
       height="1052.3622"
       transform="translate(-320.20456,299.43611)" />
    <use
       id="use4141"
       xlink:href="#path3856-7"
       x="0"
       y="0"
       width="744.09448"
       height="1052.3622"
       transform="translate(298.78634,-33.357405)" />
    <use
       id="use4143"
       xlink:href="#path3856-7"
       x="0"
       y="0"
       width="744.09448"
       height="1052.3622"
       transform="translate(255.31237,81.371797)" />
    <use
       id="use4145"
       xlink:href="#path3856-7"
       x="0"
       y="0"
       width="744.09448"
       height="1052.3622"
       transform="translate(217.54057,34.671669)" />
    <use
       id="use4147"
       xlink:href="#path3856-7"
       x="0"
       y="0"
       width="744.09448"
       height="1052.3622"
       transform="translate(267.72766,74.936927)" />
    <use
       id="use4149"
       xlink:href="#path3856-7"
       x="0"
       y="0"
       width="744.09448"
       height="1052.3622"
       transform="translate(222.1747,140.25034)" />
    <use
       id="use4151"
       xlink:href="#path3856-7"
       x="0"
       y="0"
       width="744.09448"
       height="1052.3622"
       transform="translate(14.673033,183.94479)" />
    <use
       id="use4153"
       xlink:href="#path3856-7"
       x="0"
       y="0"
       width="744.09448"
       height="1052.3622"
       transform="translate(58.809191,229.27365)" />
    <use
       id="use4155"
       xlink:href="#path3856-7"
       x="0"
       y="0"
       width="744.09448"
       height="1052.3622"
       transform="translate(19.675943,322.83198)" />
    <use
       id="use4157"
       xlink:href="#path3856-7"
       x="0"
       y="0"
       width="744.09448"
       height="1052.3622"
       transform="translate(-37.401141,241.10464)" />
    <use
       id="use4159"
       xlink:href="#path3856-7"
       x="0"
       y="0"
       width="744.09448"
       height="1052.3622"
       transform="translate(-77.813951,307.81038)" />
    <use
       id="use4161"
       xlink:href="#path3856-7"
       x="0"
       y="0"
       width="744.09448"
       height="1052.3622"
       transform="translate(44.65013,360.82708)" />
    <use
       id="use4163"
       xlink:href="#path3856-7"
       x="0"
       y="0"
       width="744.09448"
       height="1052.3622"
       transform="translate(-223.44692,537.57315)" />
    <use
       id="use4165"
       xlink:href="#path3856"
       x="0"
       y="0"
       width="744.09448"
       height="1052.3622"
       transform="translate(-91.498074,-574.31327)" />
    <use
       id="use4167"
       xlink:href="#path3856"
       x="0"
       y="0"
       width="744.09448"
       height="1052.3622"
       transform="translate(-2.1359979,-457.79064)" />
    <use
       id="use4169"
       xlink:href="#path3856"
       x="0"
       y="0"
       width="744.09448"
       height="1052.3622"
       transform="translate(-58.627653,-550.37417)" />
    <use
       id="use4171"
       xlink:href="#path3856"
       x="0"
       y="0"
       width="744.09448"
       height="1052.3622"
       transform="translate(48.207717,-509.25053)" />
    <use
       id="use4173"
       xlink:href="#path3856"
       x="0"
       y="0"
       width="744.09448"
       height="1052.3622"
       transform="translate(-96.126633,-366.08144)" />
    <use
       id="use4175"
       xlink:href="#path3856"
       x="0"
       y="0"
       width="744.09448"
       height="1052.3622"
       transform="translate(-187.33247,-489.35768)" />
    <use
       id="use4177"
       xlink:href="#path3856"
       x="0"
       y="0"
       width="744.09448"
       height="1052.3622"
       transform="translate(-208.08216,-375.72992)" />
    <use
       id="use4179"
       xlink:href="#path3856"
       x="0"
       y="0"
       width="744.09448"
       height="1052.3622"
       transform="translate(-279.13168,-399.30698)" />
    <use
       id="use4181"
       xlink:href="#path3856"
       x="0"
       y="0"
       width="744.09448"
       height="1052.3622"
       transform="translate(-199.3612,-428.31796)" />
    <use
       id="use4183"
       xlink:href="#path3856"
       x="0"
       y="0"
       width="744.09448"
       height="1052.3622"
       transform="translate(-188.8365,-379.34898)" />
    <use
       id="use4185"
       xlink:href="#path3856"
       x="0"
       y="0"
       width="744.09448"
       height="1052.3622"
       transform="translate(-206.14538,-406.90956)" />
    <use
       id="use4187"
       xlink:href="#path3856"
       x="0"
       y="0"
       width="744.09448"
       height="1052.3622"
       transform="translate(-200.66749,-373.27357)" />
    <use
       id="use4189"
       xlink:href="#path3856"
       x="0"
       y="0"
       width="744.09448"
       height="1052.3622"
       transform="translate(-318.38887,-251.19752)" />
    <use
       id="use4191"
       xlink:href="#path3856"
       x="0"
       y="0"
       width="744.09448"
       height="1052.3622"
       transform="translate(-408.89013,-290.40042)" />
    <use
       id="use4193"
       xlink:href="#path3856"
       x="0"
       y="0"
       width="744.09448"
       height="1052.3622"
       transform="translate(-328.38236,-266.24086)" />
    <use
       id="use4195"
       xlink:href="#path3856"
       x="0"
       y="0"
       width="744.09448"
       height="1052.3622"
       transform="translate(-369.91242,-302.80317)" />
    <use
       id="use4197"
       xlink:href="#path3856"
       x="0"
       y="0"
       width="744.09448"
       height="1052.3622"
       transform="translate(-261.79394,-248.66532)" />
    <use
       id="use4199"
       xlink:href="#path3856"
       x="0"
       y="0"
       width="744.09448"
       height="1052.3622"
       transform="translate(-235.31281,-282.26789)" />
    <use
       id="use4201"
       xlink:href="#path3856"
       x="0"
       y="0"
       width="744.09448"
       height="1052.3622"
       transform="translate(-279.85433,-273.77296)" />
    <use
       id="use4299"
       xlink:href="#path3856-4"
       x="0"
       y="0"
       width="744.09448"
       height="1052.3622"
       transform="translate(-395.08056,-960.614)" />
    <use
       id="use4301"
       xlink:href="#path3856-4"
       x="0"
       y="0"
       width="744.09448"
       height="1052.3622"
       transform="translate(-484.52437,-894.09594)" />
    <use
       id="use4303"
       xlink:href="#path3856-4"
       x="0"
       y="0"
       width="744.09448"
       height="1052.3622"
       transform="translate(-401.95116,-1039.8929)" />
    <use
       id="use4305"
       xlink:href="#path3856-4"
       x="0"
       y="0"
       width="744.09448"
       height="1052.3622"
       transform="translate(-465.93367,-1028.3677)" />
    <use
       id="use4307"
       xlink:href="#path3856-4"
       x="0"
       y="0"
       width="744.09448"
       height="1052.3622"
       transform="translate(-458.70587,-995.92241)" />
    <use
       id="use4309"
       xlink:href="#path3856-4"
       x="0"
       y="0"
       width="744.09448"
       height="1052.3622"
       transform="translate(-263.01947,-995.0921)" />
    <use
       id="use4311"
       xlink:href="#path3856-4"
       x="0"
       y="0"
       width="744.09448"
       height="1052.3622"
       transform="translate(-297.46508,-981.32155)" />
    <use
       id="use4313"
       xlink:href="#path3856-4"
       x="0"
       y="0"
       width="744.09448"
       height="1052.3622"
       transform="translate(-358.35979,-1016.9502)" />
    <use
       id="use4315"
       xlink:href="#path3856-4"
       x="0"
       y="0"
       width="744.09448"
       height="1052.3622"
       transform="translate(-332.23366,-1037.3106)" />
    <use
       id="use4317"
       xlink:href="#path3856-4"
       x="0"
       y="0"
       width="744.09448"
       height="1052.3622"
       transform="translate(-328.08271,-976.2541)" />
    <use
       id="use4319"
       xlink:href="#path3856-4"
       x="0"
       y="0"
       width="744.09448"
       height="1052.3622"
       transform="translate(-263.82435,-1077.6485)" />
    <use
       id="use4321"
       xlink:href="#path3856-4"
       x="0"
       y="0"
       width="744.09448"
       height="1052.3622"
       transform="translate(-347.52626,-1077.7641)" />
    <use
       id="use4323"
       xlink:href="#path3856-4"
       x="0"
       y="0"
       width="744.09448"
       height="1052.3622"
       transform="translate(-266.21879,-1009.7317)" />
    <use
       id="use4325"
       xlink:href="#path3856-4"
       x="0"
       y="0"
       width="744.09448"
       height="1052.3622"
       transform="translate(-234.76899,-1031.8664)" />
    <use
       id="use4327"
       xlink:href="#path3856-4"
       x="0"
       y="0"
       width="744.09448"
       height="1052.3622"
       transform="translate(-293.5739,-1062.0353)" />
    <use
       id="use4329"
       xlink:href="#path3856-4"
       x="0"
       y="0"
       width="744.09448"
       height="1052.3622"
       transform="translate(-207.09949,-1094.5473)" />
    <use
       id="use4331"
       xlink:href="#path3856-4"
       x="0"
       y="0"
       width="744.09448"
       height="1052.3622"
       transform="translate(-265.50588,-997.75885)" />
    <use
       id="use4333"
       xlink:href="#path3856-4"
       x="0"
       y="0"
       width="744.09448"
       height="1052.3622"
       transform="translate(-341.9405,-1062.1189)" />
    <use
       id="use4335"
       xlink:href="#path3856-4"
       x="0"
       y="0"
       width="744.09448"
       height="1052.3622"
       transform="translate(-264.26975,-1161.4698)" />
    <use
       id="use4337"
       xlink:href="#path3856-4"
       x="0"
       y="0"
       width="744.09448"
       height="1052.3622"
       transform="translate(-293.6869,-1087.6292)" />
    <use
       id="use4339"
       xlink:href="#path3856-4"
       x="0"
       y="0"
       width="744.09448"
       height="1052.3622"
       transform="translate(-240.81691,-1172.6336)" />
    <use
       id="use4341"
       xlink:href="#path3856-4"
       x="0"
       y="0"
       width="744.09448"
       height="1052.3622"
       transform="translate(-176.83937,-1165.9862)" />
    <use
       id="use4343"
       xlink:href="#path3856-4"
       x="0"
       y="0"
       width="744.09448"
       height="1052.3622"
       transform="translate(-196.43306,-1149.7783)" />
  </g>
  <g
     inkscape:groupmode="layer"
     id="layer2"
     inkscape:label="Capa" />
</svg>
