<?xml version="1.0" encoding="UTF-8" standalone="no"?>
<!-- Created with Inkscape (http://www.inkscape.org/) -->

<svg
   xmlns:dc="http://purl.org/dc/elements/1.1/"
   xmlns:cc="http://creativecommons.org/ns#"
   xmlns:rdf="http://www.w3.org/1999/02/22-rdf-syntax-ns#"
   xmlns:svg="http://www.w3.org/2000/svg"
   xmlns="http://www.w3.org/2000/svg"
   xmlns:xlink="http://www.w3.org/1999/xlink"
   xmlns:sodipodi="http://sodipodi.sourceforge.net/DTD/sodipodi-0.dtd"
   xmlns:inkscape="http://www.inkscape.org/namespaces/inkscape"
   width="1600px"
   height="1200px"
   id="svg6618"
   version="1.1"
   inkscape:version="0.48.4 r9939"
   sodipodi:docname="Nuevo documento 17">
  <defs
     id="defs6620" />
  <sodipodi:namedview
     id="base"
     pagecolor="#ffffff"
     bordercolor="#666666"
     borderopacity="1.0"
     inkscape:pageopacity="0.0"
     inkscape:pageshadow="2"
     inkscape:zoom="0.3"
     inkscape:cx="800"
     inkscape:cy="600"
     inkscape:current-layer="layer1"
     inkscape:document-units="px"
     showgrid="false"
     inkscape:window-width="1857"
     inkscape:window-height="1056"
     inkscape:window-x="63"
     inkscape:window-y="24"
     inkscape:window-maximized="1" />
  <metadata
     id="metadata6623">
    <rdf:RDF>
      <cc:Work
         rdf:about="">
        <dc:format>image/svg+xml</dc:format>
        <dc:type
           rdf:resource="http://purl.org/dc/dcmitype/StillImage" />
        <dc:title></dc:title>
      </cc:Work>
    </rdf:RDF>
  </metadata>
  <g
     id="layer1"
     inkscape:label="Layer 1"
     inkscape:groupmode="layer">
    <path
       sodipodi:type="star"
       style="fill:#ff0000;fill-opacity:1"
       id="path6628"
       sodipodi:sides="5"
       sodipodi:cx="76.666667"
       sodipodi:cy="163.33333"
       sodipodi:r1="256.75323"
       sodipodi:r2="14.371368"
       sodipodi:arg1="1.5967645"
       sodipodi:arg2="2.225083"
       inkscape:flatsided="false"
       inkscape:rounded="0"
       inkscape:randomized="0"
       d="M 70.000001,420 67.920344,174.73675 -169.49796,236.30732 63.1186,158.53894 -68.804775,-48.232936 77.03982,148.96681 232.92499,-40.395803 90.445351,159.24872 318.71106,248.98806 84.809205,175.17543 z"
       inkscape:transform-center-x="2.0601133"
       inkscape:transform-center-y="22.550202" />
    <use
       id="use6641"
       xlink:href="#path6628"
       x="0"
       y="0"
       width="1600"
       height="1200"
       transform="translate(45.324548,78.905383)" />
    <use
       id="use6643"
       xlink:href="#path6628"
       x="0"
       y="0"
       width="1600"
       height="1200"
       transform="translate(148.12008,145.37097)" />
    <use
       id="use6645"
       xlink:href="#path6628"
       x="0"
       y="0"
       width="1600"
       height="1200"
       transform="translate(31.542284,-7.1482635)" />
    <use
       id="use6647"
       xlink:href="#path6628"
       x="0"
       y="0"
       width="1600"
       height="1200"
       transform="translate(74.719105,61.991481)" />
    <use
       id="use6649"
       xlink:href="#path6628"
       x="0"
       y="0"
       width="1600"
       height="1200"
       transform="translate(154.73964,44.403749)" />
    <use
       id="use6651"
       xlink:href="#path6628"
       x="0"
       y="0"
       width="1600"
       height="1200"
       transform="translate(248.10869,-39.068186)" />
    <use
       id="use6653"
       xlink:href="#path6628"
       x="0"
       y="0"
       width="1600"
       height="1200"
       transform="translate(332.68952,83.355353)" />
    <use
       id="use6655"
       xlink:href="#path6628"
       x="0"
       y="0"
       width="1600"
       height="1200"
       transform="translate(454.25661,-10.687644)" />
    <use
       id="use6657"
       xlink:href="#path6628"
       x="0"
       y="0"
       width="1600"
       height="1200"
       transform="translate(514.56848,-62.137753)" />
    <use
       id="use6659"
       xlink:href="#path6628"
       x="0"
       y="0"
       width="1600"
       height="1200"
       transform="translate(531.55663,-76.9578)" />
    <use
       id="use6661"
       xlink:href="#path6628"
       x="0"
       y="0"
       width="1600"
       height="1200"
       transform="translate(479.12471,-55.401008)" />
    <use
       id="use6663"
       xlink:href="#path6628"
       x="0"
       y="0"
       width="1600"
       height="1200"
       transform="translate(556.23421,1.5656632)" />
    <use
       id="use6665"
       xlink:href="#path6628"
       x="0"
       y="0"
       width="1600"
       height="1200"
       transform="translate(668.08107,39.860819)" />
    <use
       id="use6667"
       xlink:href="#path6628"
       x="0"
       y="0"
       width="1600"
       height="1200"
       transform="translate(779.99456,19.649452)" />
    <use
       id="use6669"
       xlink:href="#path6628"
       x="0"
       y="0"
       width="1600"
       height="1200"
       transform="translate(855.26454,-32.973677)" />
    <use
       id="use6671"
       xlink:href="#path6628"
       x="0"
       y="0"
       width="1600"
       height="1200"
       transform="translate(740.03934,18.061951)" />
    <use
       id="use6673"
       xlink:href="#path6628"
       x="0"
       y="0"
       width="1600"
       height="1200"
       transform="translate(823.87762,-60.037383)" />
    <use
       id="use6675"
       xlink:href="#path6628"
       x="0"
       y="0"
       width="1600"
       height="1200"
       transform="translate(847.49023,78.010839)" />
    <use
       id="use6677"
       xlink:href="#path6628"
       x="0"
       y="0"
       width="1600"
       height="1200"
       transform="translate(1004.875,78.67739)" />
    <use
       id="use6679"
       xlink:href="#path6628"
       x="0"
       y="0"
       width="1600"
       height="1200"
       transform="translate(942.07756,22.212993)" />
    <use
       id="use6681"
       xlink:href="#path6628"
       x="0"
       y="0"
       width="1600"
       height="1200"
       transform="translate(1089.6844,21.714874)" />
    <use
       id="use6683"
       xlink:href="#path6628"
       x="0"
       y="0"
       width="1600"
       height="1200"
       transform="translate(1013.5149,111.12467)" />
    <use
       id="use6685"
       xlink:href="#path6628"
       x="0"
       y="0"
       width="1600"
       height="1200"
       transform="translate(1000.5899,154.37166)" />
    <use
       id="use6687"
       xlink:href="#path6628"
       x="0"
       y="0"
       width="1600"
       height="1200"
       transform="translate(1164.3094,86.695439)" />
    <use
       id="use6689"
       xlink:href="#path6628"
       x="0"
       y="0"
       width="1600"
       height="1200"
       transform="translate(1168.3715,-11.61973)" />
    <use
       id="use6691"
       xlink:href="#path6628"
       x="0"
       y="0"
       width="1600"
       height="1200"
       transform="translate(1310.4166,138.71566)" />
    <use
       id="use6693"
       xlink:href="#path6628"
       x="0"
       y="0"
       width="1600"
       height="1200"
       transform="translate(1223.5598,197.05404)" />
    <use
       id="use6695"
       xlink:href="#path6628"
       x="0"
       y="0"
       width="1600"
       height="1200"
       transform="translate(1208.0376,178.66394)" />
    <use
       id="use6697"
       xlink:href="#path6628"
       x="0"
       y="0"
       width="1600"
       height="1200"
       transform="translate(1305.5419,216.10749)" />
    <use
       id="use6699"
       xlink:href="#path6628"
       x="0"
       y="0"
       width="1600"
       height="1200"
       transform="translate(1396.1118,277.14246)" />
    <use
       id="use6701"
       xlink:href="#path6628"
       x="0"
       y="0"
       width="1600"
       height="1200"
       transform="translate(1386.5222,218.13888)" />
    <use
       id="use6703"
       xlink:href="#path6628"
       x="0"
       y="0"
       width="1600"
       height="1200"
       transform="translate(1234.2335,196.1621)" />
    <use
       id="use6705"
       xlink:href="#path6628"
       x="0"
       y="0"
       width="1600"
       height="1200"
       transform="translate(1366.1787,299.61292)" />
    <use
       id="use6707"
       xlink:href="#path6628"
       x="0"
       y="0"
       width="1600"
       height="1200"
       transform="translate(1276.955,197.00817)" />
    <use
       id="use6709"
       xlink:href="#path6628"
       x="0"
       y="0"
       width="1600"
       height="1200"
       transform="translate(1407.686,304.20609)" />
    <use
       id="use6711"
       xlink:href="#path6628"
       x="0"
       y="0"
       width="1600"
       height="1200"
       transform="translate(1338.6048,292.66781)" />
    <use
       id="use6713"
       xlink:href="#path6628"
       x="0"
       y="0"
       width="1600"
       height="1200"
       transform="translate(1331.0805,358.80877)" />
    <use
       id="use6715"
       xlink:href="#path6628"
       x="0"
       y="0"
       width="1600"
       height="1200"
       transform="translate(1349.0845,230.10157)" />
    <use
       id="use6717"
       xlink:href="#path6628"
       x="0"
       y="0"
       width="1600"
       height="1200"
       transform="translate(1311.8399,200.64427)" />
    <use
       id="use6719"
       xlink:href="#path6628"
       x="0"
       y="0"
       width="1600"
       height="1200"
       transform="translate(1295.7969,231.14133)" />
    <use
       id="use6721"
       xlink:href="#path6628"
       x="0"
       y="0"
       width="1600"
       height="1200"
       transform="translate(1284.0057,354.3542)" />
    <path
       transform="matrix(0.72775395,0.68583831,-0.68583831,0.72775395,298.2859,412.66902)"
       sodipodi:type="star"
       style="fill:#ff00ff;fill-opacity:1"
       id="path6628-5"
       sodipodi:sides="5"
       sodipodi:cx="76.666664"
       sodipodi:cy="163.33333"
       sodipodi:r1="256.75323"
       sodipodi:r2="14.371368"
       sodipodi:arg1="1.5967645"
       sodipodi:arg2="2.225083"
       inkscape:flatsided="false"
       inkscape:rounded="0"
       inkscape:randomized="0"
       d="M 70.000001,420 67.920344,174.73675 -169.49796,236.30732 63.1186,158.53894 -68.804775,-48.232936 77.03982,148.96681 232.92499,-40.395803 90.445351,159.24872 318.71106,248.98806 84.809205,175.17543 z"
       inkscape:transform-center-x="-12.123611"
       inkscape:transform-center-y="-12.699588" />
    <use
       id="use6730"
       xlink:href="#path6628-5"
       x="0"
       y="0"
       width="1600"
       height="1200"
       transform="translate(-14.717093,-124.91198)" />
    <use
       id="use6732"
       xlink:href="#path6628-5"
       x="0"
       y="0"
       width="1600"
       height="1200"
       transform="translate(-53.040094,-43.35841)" />
    <use
       id="use6734"
       xlink:href="#path6628-5"
       x="0"
       y="0"
       width="1600"
       height="1200"
       transform="translate(1.6707275,-123.85239)" />
    <use
       id="use6736"
       xlink:href="#path6628-5"
       x="0"
       y="0"
       width="1600"
       height="1200"
       transform="translate(137.05044,-60.626204)" />
    <use
       id="use6738"
       xlink:href="#path6628-5"
       x="0"
       y="0"
       width="1600"
       height="1200"
       transform="translate(71.216052,-106.92768)" />
    <use
       id="use6740"
       xlink:href="#path6628-5"
       x="0"
       y="0"
       width="1600"
       height="1200"
       transform="translate(128.68182,-64.221708)" />
    <use
       id="use6742"
       xlink:href="#path6628-5"
       x="0"
       y="0"
       width="1600"
       height="1200"
       transform="translate(165.6775,-41.262587)" />
    <use
       id="use6744"
       xlink:href="#path6628-5"
       x="0"
       y="0"
       width="1600"
       height="1200"
       transform="translate(204.9505,-153.50895)" />
    <use
       id="use6746"
       xlink:href="#path6628-5"
       x="0"
       y="0"
       width="1600"
       height="1200"
       transform="translate(208.60878,-94.03545)" />
    <use
       id="use6748"
       xlink:href="#path6628-5"
       x="0"
       y="0"
       width="1600"
       height="1200"
       transform="translate(41.575073,-3.386441)" />
    <use
       id="use6750"
       xlink:href="#path6628-5"
       x="0"
       y="0"
       width="1600"
       height="1200"
       transform="translate(65.184115,-43.683243)" />
    <use
       id="use6752"
       xlink:href="#path6628-5"
       x="0"
       y="0"
       width="1600"
       height="1200"
       transform="translate(219.1891,-69.542548)" />
    <use
       id="use6754"
       xlink:href="#path6628-5"
       x="0"
       y="0"
       width="1600"
       height="1200"
       transform="translate(194.34812,-34.718042)" />
    <use
       id="use6756"
       xlink:href="#path6628-5"
       x="0"
       y="0"
       width="1600"
       height="1200"
       transform="translate(155.62123,-24.564901)" />
    <use
       id="use6758"
       xlink:href="#path6628-5"
       x="0"
       y="0"
       width="1600"
       height="1200"
       transform="translate(299.73789,-95.511235)" />
    <use
       id="use6760"
       xlink:href="#path6628-5"
       x="0"
       y="0"
       width="1600"
       height="1200"
       transform="translate(157.34619,-34.772774)" />
    <use
       id="use6762"
       xlink:href="#path6628-5"
       x="0"
       y="0"
       width="1600"
       height="1200"
       transform="translate(282.58281,-229.07798)" />
    <use
       id="use6764"
       xlink:href="#path6628-5"
       x="0"
       y="0"
       width="1600"
       height="1200"
       transform="translate(212.77338,-106.27985)" />
    <use
       id="use6766"
       xlink:href="#path6628-5"
       x="0"
       y="0"
       width="1600"
       height="1200"
       transform="translate(329.2515,-72.899304)" />
    <use
       id="use6768"
       xlink:href="#path6628-5"
       x="0"
       y="0"
       width="1600"
       height="1200"
       transform="translate(474.8977,-139.60997)" />
    <use
       id="use6770"
       xlink:href="#path6628-5"
       x="0"
       y="0"
       width="1600"
       height="1200"
       transform="translate(452.28103,-103.94083)" />
    <use
       id="use6772"
       xlink:href="#path6628-5"
       x="0"
       y="0"
       width="1600"
       height="1200"
       transform="translate(382.03171,-148.58983)" />
    <use
       id="use6774"
       xlink:href="#path6628-5"
       x="0"
       y="0"
       width="1600"
       height="1200"
       transform="translate(534.60648,-131.53435)" />
    <use
       id="use6776"
       xlink:href="#path6628-5"
       x="0"
       y="0"
       width="1600"
       height="1200"
       transform="translate(473.63162,-145.89596)" />
    <use
       id="use6778"
       xlink:href="#path6628-5"
       x="0"
       y="0"
       width="1600"
       height="1200"
       transform="translate(577.8395,-213.46229)" />
    <use
       id="use6780"
       xlink:href="#path6628-5"
       x="0"
       y="0"
       width="1600"
       height="1200"
       transform="translate(587.20354,-221.76961)" />
    <use
       id="use6782"
       xlink:href="#path6628-5"
       x="0"
       y="0"
       width="1600"
       height="1200"
       transform="translate(648.70325,-198.98222)" />
    <use
       id="use6784"
       xlink:href="#path6628-5"
       x="0"
       y="0"
       width="1600"
       height="1200"
       transform="translate(597.48577,-155.89731)" />
    <use
       id="use6786"
       xlink:href="#path6628-5"
       x="0"
       y="0"
       width="1600"
       height="1200"
       transform="translate(838.51727,-69.922203)" />
    <use
       id="use6788"
       xlink:href="#path6628-5"
       x="0"
       y="0"
       width="1600"
       height="1200"
       transform="translate(733.46318,-141.76514)" />
    <use
       id="use6790"
       xlink:href="#path6628-5"
       x="0"
       y="0"
       width="1600"
       height="1200"
       transform="translate(784.3818,-211.14273)" />
    <use
       id="use6792"
       xlink:href="#path6628-5"
       x="0"
       y="0"
       width="1600"
       height="1200"
       transform="translate(924.37691,-149.85873)" />
    <use
       id="use6794"
       xlink:href="#path6628-5"
       x="0"
       y="0"
       width="1600"
       height="1200"
       transform="translate(885.05304,-64.290704)" />
    <use
       id="use6796"
       xlink:href="#path6628-5"
       x="0"
       y="0"
       width="1600"
       height="1200"
       transform="translate(1004.5175,-193.71021)" />
    <use
       id="use6798"
       xlink:href="#path6628-5"
       x="0"
       y="0"
       width="1600"
       height="1200"
       transform="translate(1124.0363,-70.958495)" />
    <use
       id="use6800"
       xlink:href="#path6628-5"
       x="0"
       y="0"
       width="1600"
       height="1200"
       transform="translate(1101.4352,-111.83624)" />
    <use
       id="use6802"
       xlink:href="#path6628-5"
       x="0"
       y="0"
       width="1600"
       height="1200"
       transform="translate(1088.3935,-122.44232)" />
    <use
       id="use6804"
       xlink:href="#path6628-5"
       x="0"
       y="0"
       width="1600"
       height="1200"
       transform="translate(1296.3016,-55.893543)" />
    <use
       id="use6806"
       xlink:href="#path6628-5"
       x="0"
       y="0"
       width="1600"
       height="1200"
       transform="translate(1169.2933,-13.238305)" />
    <use
       id="use6808"
       xlink:href="#path6628-5"
       x="0"
       y="0"
       width="1600"
       height="1200"
       transform="translate(1226.8689,6.6258998)" />
    <use
       id="use6810"
       xlink:href="#path6628-5"
       x="0"
       y="0"
       width="1600"
       height="1200"
       transform="translate(1337.4638,-63.723524)" />
    <use
       id="use6812"
       xlink:href="#path6628-5"
       x="0"
       y="0"
       width="1600"
       height="1200"
       transform="translate(1292.8265,45.609696)" />
    <use
       id="use6814"
       xlink:href="#path6628-5"
       x="0"
       y="0"
       width="1600"
       height="1200"
       transform="translate(1342.5855,149.80796)" />
    <use
       id="use6816"
       xlink:href="#path6628-5"
       x="0"
       y="0"
       width="1600"
       height="1200"
       transform="translate(1390.3469,58.754673)" />
    <use
       id="use6818"
       xlink:href="#path6628-5"
       x="0"
       y="0"
       width="1600"
       height="1200"
       transform="translate(1387.6739,79.661469)" />
    <use
       id="use6820"
       xlink:href="#path6628-5"
       x="0"
       y="0"
       width="1600"
       height="1200"
       transform="translate(1216.5086,126.1102)" />
    <use
       id="use6822"
       xlink:href="#path6628-5"
       x="0"
       y="0"
       width="1600"
       height="1200"
       transform="translate(1225.1302,80.454462)" />
    <use
       id="use6824"
       xlink:href="#path6628-5"
       x="0"
       y="0"
       width="1600"
       height="1200"
       transform="translate(1190.9566,84.204033)" />
    <use
       id="use6826"
       xlink:href="#path6628-5"
       x="0"
       y="0"
       width="1600"
       height="1200"
       transform="translate(1226.4803,108.57533)" />
    <use
       id="use6828"
       xlink:href="#path6628-5"
       x="0"
       y="0"
       width="1600"
       height="1200"
       transform="translate(1331.3947,22.848911)" />
    <use
       id="use6830"
       xlink:href="#path6628-5"
       x="0"
       y="0"
       width="1600"
       height="1200"
       transform="translate(1228.1264,19.470917)" />
    <use
       id="use6832"
       xlink:href="#path6628-5"
       x="0"
       y="0"
       width="1600"
       height="1200"
       transform="translate(1223.6022,23.211979)" />
    <use
       id="use6834"
       xlink:href="#path6628-5"
       x="0"
       y="0"
       width="1600"
       height="1200"
       transform="translate(1240.9673,155.0623)" />
    <use
       id="use6836"
       xlink:href="#path6628-5"
       x="0"
       y="0"
       width="1600"
       height="1200"
       transform="translate(1096.6635,59.287128)" />
    <use
       id="use6838"
       xlink:href="#path6628-5"
       x="0"
       y="0"
       width="1600"
       height="1200"
       transform="translate(1108.043,-38.4148)" />
    <use
       id="use6840"
       xlink:href="#path6628-5"
       x="0"
       y="0"
       width="1600"
       height="1200"
       transform="translate(1252.0626,-35.912706)" />
    <use
       id="use6842"
       xlink:href="#path6628-5"
       x="0"
       y="0"
       width="1600"
       height="1200"
       transform="translate(1109.2526,-12.336386)" />
    <use
       id="use6844"
       xlink:href="#path6628-5"
       x="0"
       y="0"
       width="1600"
       height="1200"
       transform="translate(1040.4394,5.5313605)" />
    <use
       id="use6846"
       xlink:href="#path6628-5"
       x="0"
       y="0"
       width="1600"
       height="1200"
       transform="translate(1093.9503,14.188837)" />
    <use
       id="use6848"
       xlink:href="#path6628-5"
       x="0"
       y="0"
       width="1600"
       height="1200"
       transform="translate(904.36369,-60.229411)" />
    <use
       id="use6850"
       xlink:href="#path6628-5"
       x="0"
       y="0"
       width="1600"
       height="1200"
       transform="translate(860.14641,-160.87029)" />
    <use
       id="use6852"
       xlink:href="#path6628-5"
       x="0"
       y="0"
       width="1600"
       height="1200"
       transform="translate(782.23726,-158.29865)" />
    <use
       id="use6854"
       xlink:href="#path6628-5"
       x="0"
       y="0"
       width="1600"
       height="1200"
       transform="translate(715.58393,-60.724698)" />
    <use
       id="use6856"
       xlink:href="#path6628-5"
       x="0"
       y="0"
       width="1600"
       height="1200"
       transform="translate(715.40682,-99.482121)" />
    <use
       id="use6858"
       xlink:href="#path6628-5"
       x="0"
       y="0"
       width="1600"
       height="1200"
       transform="translate(536.80296,-64.41319)" />
    <use
       id="use6860"
       xlink:href="#path6628-5"
       x="0"
       y="0"
       width="1600"
       height="1200"
       transform="translate(575.44322,-89.734969)" />
    <use
       id="use6862"
       xlink:href="#path6628-5"
       x="0"
       y="0"
       width="1600"
       height="1200"
       transform="translate(572.96318,-79.132874)" />
    <use
       id="use6864"
       xlink:href="#path6628-5"
       x="0"
       y="0"
       width="1600"
       height="1200"
       transform="translate(578.52121,19.780152)" />
    <use
       id="use6866"
       xlink:href="#path6628-5"
       x="0"
       y="0"
       width="1600"
       height="1200"
       transform="translate(591.66703,-19.277004)" />
    <use
       id="use6868"
       xlink:href="#path6628-5"
       x="0"
       y="0"
       width="1600"
       height="1200"
       transform="translate(388.05885,-42.472989)" />
    <use
       id="use6870"
       xlink:href="#path6628-5"
       x="0"
       y="0"
       width="1600"
       height="1200"
       transform="translate(347.01452,-29.533515)" />
    <use
       id="use6872"
       xlink:href="#path6628-5"
       x="0"
       y="0"
       width="1600"
       height="1200"
       transform="translate(480.36402,-117.16929)" />
    <use
       id="use6874"
       xlink:href="#path6628-5"
       x="0"
       y="0"
       width="1600"
       height="1200"
       transform="translate(390.48311,-127.70963)" />
    <use
       id="use6876"
       xlink:href="#path6628-5"
       x="0"
       y="0"
       width="1600"
       height="1200"
       transform="translate(324.34639,-40.530716)" />
    <use
       id="use6878"
       xlink:href="#path6628-5"
       x="0"
       y="0"
       width="1600"
       height="1200"
       transform="translate(351.913,-140.08562)" />
    <use
       id="use6880"
       xlink:href="#path6628-5"
       x="0"
       y="0"
       width="1600"
       height="1200"
       transform="translate(330.2286,-90.096655)" />
    <use
       id="use6882"
       xlink:href="#path6628-5"
       x="0"
       y="0"
       width="1600"
       height="1200"
       transform="translate(391.8378,-133.35882)" />
    <use
       id="use6884"
       xlink:href="#path6628-5"
       x="0"
       y="0"
       width="1600"
       height="1200"
       transform="translate(384.8574,-40.962764)" />
    <use
       id="use6886"
       xlink:href="#path6628-5"
       x="0"
       y="0"
       width="1600"
       height="1200"
       transform="translate(447.6261,-69.26519)" />
    <use
       id="use6888"
       xlink:href="#path6628-5"
       x="0"
       y="0"
       width="1600"
       height="1200"
       transform="translate(382.04457,-75.818389)" />
    <use
       id="use6890"
       xlink:href="#path6628-5"
       x="0"
       y="0"
       width="1600"
       height="1200"
       transform="translate(192.84491,-72.921247)" />
    <use
       id="use6892"
       xlink:href="#path6628-5"
       x="0"
       y="0"
       width="1600"
       height="1200"
       transform="translate(186.98079,-23.559759)" />
    <use
       id="use6894"
       xlink:href="#path6628-5"
       x="0"
       y="0"
       width="1600"
       height="1200"
       transform="translate(178.72108,50.006931)" />
    <use
       id="use6896"
       xlink:href="#path6628-5"
       x="0"
       y="0"
       width="1600"
       height="1200"
       transform="translate(268.59792,3.5386577)" />
    <use
       id="use6898"
       xlink:href="#path6628-5"
       x="0"
       y="0"
       width="1600"
       height="1200"
       transform="translate(299.84964,36.246104)" />
    <use
       id="use6900"
       xlink:href="#path6628-5"
       x="0"
       y="0"
       width="1600"
       height="1200"
       transform="translate(268.64273,69.957738)" />
    <use
       id="use6902"
       xlink:href="#path6628-5"
       x="0"
       y="0"
       width="1600"
       height="1200"
       transform="translate(241.92717,17.906163)" />
    <use
       id="use6904"
       xlink:href="#path6628-5"
       x="0"
       y="0"
       width="1600"
       height="1200"
       transform="translate(193.93708,145.48154)" />
    <use
       id="use6906"
       xlink:href="#path6628-5"
       x="0"
       y="0"
       width="1600"
       height="1200"
       transform="translate(194.72444,83.207431)" />
    <use
       id="use6908"
       xlink:href="#path6628-5"
       x="0"
       y="0"
       width="1600"
       height="1200"
       transform="translate(148.7826,-53.071501)" />
    <use
       id="use6910"
       xlink:href="#path6628-5"
       x="0"
       y="0"
       width="1600"
       height="1200"
       transform="translate(154.62435,-50.067152)" />
    <use
       id="use6912"
       xlink:href="#path6628-5"
       x="0"
       y="0"
       width="1600"
       height="1200"
       transform="translate(25.816664,49.164458)" />
    <use
       id="use6914"
       xlink:href="#path6628-5"
       x="0"
       y="0"
       width="1600"
       height="1200"
       transform="translate(126.53555,63.986909)" />
    <use
       id="use6916"
       xlink:href="#path6628-5"
       x="0"
       y="0"
       width="1600"
       height="1200"
       transform="translate(110.44157,134.61717)" />
    <use
       id="use6918"
       xlink:href="#path6628-5"
       x="0"
       y="0"
       width="1600"
       height="1200"
       transform="translate(119.08185,29.383064)" />
    <use
       id="use6920"
       xlink:href="#path6628-5"
       x="0"
       y="0"
       width="1600"
       height="1200"
       transform="translate(101.27911,30.660864)" />
    <use
       id="use6922"
       xlink:href="#path6628-5"
       x="0"
       y="0"
       width="1600"
       height="1200"
       transform="translate(118.25239,93.842955)" />
    <use
       id="use6924"
       xlink:href="#path6628-5"
       x="0"
       y="0"
       width="1600"
       height="1200"
       transform="translate(142.88042,-16.525272)" />
    <use
       id="use6926"
       xlink:href="#path6628-5"
       x="0"
       y="0"
       width="1600"
       height="1200"
       transform="translate(12.538049,-35.009504)" />
    <use
       id="use6928"
       xlink:href="#path6628-5"
       x="0"
       y="0"
       width="1600"
       height="1200"
       transform="translate(-18.497926,-9.1514057)" />
    <use
       id="use6930"
       xlink:href="#path6628-5"
       x="0"
       y="0"
       width="1600"
       height="1200"
       transform="translate(-7.5267745,-20.142897)" />
    <path
       transform="translate(298.72678,644.11647)"
       sodipodi:type="star"
       style="fill:#338000;fill-opacity:1"
       id="path6628-3"
       sodipodi:sides="5"
       sodipodi:cx="76.666664"
       sodipodi:cy="163.33333"
       sodipodi:r1="256.75323"
       sodipodi:r2="14.371368"
       sodipodi:arg1="1.5967645"
       sodipodi:arg2="2.225083"
       inkscape:flatsided="false"
       inkscape:rounded="0"
       inkscape:randomized="0"
       d="M 70.000001,420 67.920344,174.73675 -169.49796,236.30732 63.1186,158.53894 -68.804775,-48.232936 77.03982,148.96681 232.92499,-40.395803 90.445351,159.24872 318.71106,248.98806 84.809205,175.17543 z"
       inkscape:transform-center-x="2.0601133"
       inkscape:transform-center-y="22.550202" />
    <use
       id="use6939"
       xlink:href="#path6628-3"
       x="0"
       y="0"
       width="1600"
       height="1200"
       transform="translate(12.883453,-96.365745)" />
    <use
       id="use6941"
       xlink:href="#path6628-3"
       x="0"
       y="0"
       width="1600"
       height="1200"
       transform="translate(169.56385,-93.857131)" />
    <use
       id="use6943"
       xlink:href="#path6628-3"
       x="0"
       y="0"
       width="1600"
       height="1200"
       transform="translate(78.47773,-44.802188)" />
    <use
       id="use6945"
       xlink:href="#path6628-3"
       x="0"
       y="0"
       width="1600"
       height="1200"
       transform="translate(99.104853,-93.968076)" />
    <use
       id="use6947"
       xlink:href="#path6628-3"
       x="0"
       y="0"
       width="1600"
       height="1200"
       transform="translate(80.047582,-22.776059)" />
    <use
       id="use6949"
       xlink:href="#path6628-3"
       x="0"
       y="0"
       width="1600"
       height="1200"
       transform="translate(232.13703,-127.44772)" />
    <use
       id="use6951"
       xlink:href="#path6628-3"
       x="0"
       y="0"
       width="1600"
       height="1200"
       transform="translate(206.63562,-205.1185)" />
    <use
       id="use6953"
       xlink:href="#path6628-3"
       x="0"
       y="0"
       width="1600"
       height="1200"
       transform="translate(376.01754,-113.16839)" />
    <use
       id="use6955"
       xlink:href="#path6628-3"
       x="0"
       y="0"
       width="1600"
       height="1200"
       transform="translate(354.94733,-106.62058)" />
    <use
       id="use6957"
       xlink:href="#path6628-3"
       x="0"
       y="0"
       width="1600"
       height="1200"
       transform="translate(661.05629,-163.16098)" />
    <use
       id="use6959"
       xlink:href="#path6628-3"
       x="0"
       y="0"
       width="1600"
       height="1200"
       transform="translate(607.23975,-216.28829)" />
    <use
       id="use6961"
       xlink:href="#path6628-3"
       x="0"
       y="0"
       width="1600"
       height="1200"
       transform="translate(602.91699,-120.29534)" />
    <use
       id="use6963"
       xlink:href="#path6628-3"
       x="0"
       y="0"
       width="1600"
       height="1200"
       transform="translate(828.9824,-115.10003)" />
    <use
       id="use6965"
       xlink:href="#path6628-3"
       x="0"
       y="0"
       width="1600"
       height="1200"
       transform="translate(863.86333,-173.91022)" />
    <use
       id="use6967"
       xlink:href="#path6628-3"
       x="0"
       y="0"
       width="1600"
       height="1200"
       transform="translate(885.90625,-141.01801)" />
    <use
       id="use6969"
       xlink:href="#path6628-3"
       x="0"
       y="0"
       width="1600"
       height="1200"
       transform="translate(960.22425,-146.20805)" />
    <use
       id="use6971"
       xlink:href="#path6628-3"
       x="0"
       y="0"
       width="1600"
       height="1200"
       transform="translate(940.52386,-126.4523)" />
    <use
       id="use6973"
       xlink:href="#path6628-3"
       x="0"
       y="0"
       width="1600"
       height="1200"
       transform="translate(1116.9733,-223.1065)" />
    <use
       id="use6975"
       xlink:href="#path6628-3"
       x="0"
       y="0"
       width="1600"
       height="1200"
       transform="translate(1101.7216,-161.64381)" />
    <use
       id="use6977"
       xlink:href="#path6628-3"
       x="0"
       y="0"
       width="1600"
       height="1200"
       transform="translate(1105.2176,-226.34416)" />
    <use
       id="use6979"
       xlink:href="#path6628-3"
       x="0"
       y="0"
       width="1600"
       height="1200"
       transform="translate(1079.4752,-186.68726)" />
    <use
       id="use6981"
       xlink:href="#path6628-3"
       x="0"
       y="0"
       width="1600"
       height="1200"
       transform="translate(1120.8524,-143.87951)" />
    <use
       id="use6983"
       xlink:href="#path6628-3"
       x="0"
       y="0"
       width="1600"
       height="1200"
       transform="translate(1026.5757,-161.60232)" />
    <use
       id="use6985"
       xlink:href="#path6628-3"
       x="0"
       y="0"
       width="1600"
       height="1200"
       transform="translate(828.37691,-230.26342)" />
    <use
       id="use6987"
       xlink:href="#path6628-3"
       x="0"
       y="0"
       width="1600"
       height="1200"
       transform="translate(811.68843,-283.85656)" />
    <use
       id="use6989"
       xlink:href="#path6628-3"
       x="0"
       y="0"
       width="1600"
       height="1200"
       transform="translate(718.30189,-138.23332)" />
    <use
       id="use6991"
       xlink:href="#path6628-3"
       x="0"
       y="0"
       width="1600"
       height="1200"
       transform="translate(705.31104,-102.75943)" />
    <use
       id="use6993"
       xlink:href="#path6628-3"
       x="0"
       y="0"
       width="1600"
       height="1200"
       transform="translate(604.91823,-195.84564)" />
    <use
       id="use6995"
       xlink:href="#path6628-3"
       x="0"
       y="0"
       width="1600"
       height="1200"
       transform="translate(560.60812,-189.4229)" />
    <use
       id="use6997"
       xlink:href="#path6628-3"
       x="0"
       y="0"
       width="1600"
       height="1200"
       transform="translate(632.21013,-142.15266)" />
    <use
       id="use6999"
       xlink:href="#path6628-3"
       x="0"
       y="0"
       width="1600"
       height="1200"
       transform="translate(521.25508,-192.06818)" />
    <use
       id="use7001"
       xlink:href="#path6628-3"
       x="0"
       y="0"
       width="1600"
       height="1200"
       transform="translate(463.62033,-124.39525)" />
    <use
       id="use7003"
       xlink:href="#path6628-3"
       x="0"
       y="0"
       width="1600"
       height="1200"
       transform="translate(485.978,-158.29875)" />
    <use
       id="use7005"
       xlink:href="#path6628-3"
       x="0"
       y="0"
       width="1600"
       height="1200"
       transform="translate(500.81806,-189.02338)" />
    <use
       id="use7007"
       xlink:href="#path6628-3"
       x="0"
       y="0"
       width="1600"
       height="1200"
       transform="translate(475.44384,-66.527026)" />
    <use
       id="use7009"
       xlink:href="#path6628-3"
       x="0"
       y="0"
       width="1600"
       height="1200"
       transform="translate(384.41492,-136.97556)" />
    <use
       id="use7011"
       xlink:href="#path6628-3"
       x="0"
       y="0"
       width="1600"
       height="1200"
       transform="translate(478.65087,-50.200598)" />
    <use
       id="use7013"
       xlink:href="#path6628-3"
       x="0"
       y="0"
       width="1600"
       height="1200"
       transform="translate(459.40038,-206.9138)" />
    <use
       id="use7015"
       xlink:href="#path6628-3"
       x="0"
       y="0"
       width="1600"
       height="1200"
       transform="translate(433.16199,-152.51025)" />
    <use
       id="use7017"
       xlink:href="#path6628-3"
       x="0"
       y="0"
       width="1600"
       height="1200"
       transform="translate(292.5957,-241.57395)" />
    <use
       id="use7019"
       xlink:href="#path6628-3"
       x="0"
       y="0"
       width="1600"
       height="1200"
       transform="translate(302.32969,-168.4611)" />
    <use
       id="use7021"
       xlink:href="#path6628-3"
       x="0"
       y="0"
       width="1600"
       height="1200"
       transform="translate(389.16557,-215.56935)" />
    <use
       id="use7023"
       xlink:href="#path6628-3"
       x="0"
       y="0"
       width="1600"
       height="1200"
       transform="translate(307.7664,-68.420768)" />
    <use
       id="use7025"
       xlink:href="#path6628-3"
       x="0"
       y="0"
       width="1600"
       height="1200"
       transform="translate(254.11618,-109.3611)" />
    <path
       transform="translate(278.72678,837.4498)"
       sodipodi:type="star"
       style="fill:#80ffe6;fill-opacity:1"
       id="path6628-56"
       sodipodi:sides="5"
       sodipodi:cx="76.666664"
       sodipodi:cy="163.33333"
       sodipodi:r1="256.75323"
       sodipodi:r2="14.371368"
       sodipodi:arg1="1.5967645"
       sodipodi:arg2="2.225083"
       inkscape:flatsided="false"
       inkscape:rounded="0"
       inkscape:randomized="0"
       d="M 70.000001,420 67.920344,174.73675 -169.49796,236.30732 63.1186,158.53894 -68.804775,-48.232936 77.03982,148.96681 232.92499,-40.395803 90.445351,159.24872 318.71106,248.98806 84.809205,175.17543 z"
       inkscape:transform-center-x="2.0601133"
       inkscape:transform-center-y="22.550202" />
    <use
       id="use7034"
       xlink:href="#path6628-56"
       x="0"
       y="0"
       width="1600"
       height="1200"
       transform="translate(153.31962,-81.77954)" />
    <use
       id="use7036"
       xlink:href="#path6628-56"
       x="0"
       y="0"
       width="1600"
       height="1200"
       transform="translate(38.483827,-90.649724)" />
    <use
       id="use7038"
       xlink:href="#path6628-56"
       x="0"
       y="0"
       width="1600"
       height="1200"
       transform="translate(-23.586142,-94.772641)" />
    <use
       id="use7040"
       xlink:href="#path6628-56"
       x="0"
       y="0"
       width="1600"
       height="1200"
       transform="translate(145.83311,-134.39152)" />
    <use
       id="use7042"
       xlink:href="#path6628-56"
       x="0"
       y="0"
       width="1600"
       height="1200"
       transform="translate(186.53462,-127.45106)" />
    <use
       id="use7044"
       xlink:href="#path6628-56"
       x="0"
       y="0"
       width="1600"
       height="1200"
       transform="translate(159.14338,-227.67007)" />
    <use
       id="use7046"
       xlink:href="#path6628-56"
       x="0"
       y="0"
       width="1600"
       height="1200"
       transform="translate(123.77811,-157.05897)" />
    <use
       id="use7048"
       xlink:href="#path6628-56"
       x="0"
       y="0"
       width="1600"
       height="1200"
       transform="translate(260.42639,-239.62387)" />
    <use
       id="use7050"
       xlink:href="#path6628-56"
       x="0"
       y="0"
       width="1600"
       height="1200"
       transform="translate(583.2503,-329.8245)" />
    <use
       id="use7052"
       xlink:href="#path6628-56"
       x="0"
       y="0"
       width="1600"
       height="1200"
       transform="translate(962.50441,-740.83966)" />
    <use
       id="use7054"
       xlink:href="#path6628-56"
       x="0"
       y="0"
       width="1600"
       height="1200"
       transform="translate(991.35419,-683.37194)" />
    <use
       id="use7056"
       xlink:href="#path6628-56"
       x="0"
       y="0"
       width="1600"
       height="1200"
       transform="translate(1107.5182,-665.49901)" />
    <use
       id="use7058"
       xlink:href="#path6628-56"
       x="0"
       y="0"
       width="1600"
       height="1200"
       transform="translate(1200.3231,-783.85813)" />
    <use
       id="use7060"
       xlink:href="#path6628-56"
       x="0"
       y="0"
       width="1600"
       height="1200"
       transform="translate(1158.5563,-867.57555)" />
    <use
       id="use7062"
       xlink:href="#path6628-56"
       x="0"
       y="0"
       width="1600"
       height="1200"
       transform="translate(1309.0447,-757.7233)" />
    <use
       id="use7064"
       xlink:href="#path6628-56"
       x="0"
       y="0"
       width="1600"
       height="1200"
       transform="translate(1374.0025,-919.75067)" />
    <use
       id="use7066"
       xlink:href="#path6628-56"
       x="0"
       y="0"
       width="1600"
       height="1200"
       transform="translate(1346.2352,-838.68486)" />
    <use
       id="use7068"
       xlink:href="#path6628-56"
       x="0"
       y="0"
       width="1600"
       height="1200"
       transform="translate(1483.9187,-985.12803)" />
    <use
       id="use7070"
       xlink:href="#path6628-56"
       x="0"
       y="0"
       width="1600"
       height="1200"
       transform="translate(1362.0832,-924.44032)" />
    <use
       id="use7072"
       xlink:href="#path6628-56"
       x="0"
       y="0"
       width="1600"
       height="1200"
       transform="translate(1351.7763,-914.90324)" />
    <use
       id="use7074"
       xlink:href="#path6628-56"
       x="0"
       y="0"
       width="1600"
       height="1200"
       transform="translate(1076.8479,-649.74649)" />
    <use
       id="use7076"
       xlink:href="#path6628-56"
       x="0"
       y="0"
       width="1600"
       height="1200"
       transform="translate(1031.4048,-749.71116)" />
    <use
       id="use7078"
       xlink:href="#path6628-56"
       x="0"
       y="0"
       width="1600"
       height="1200"
       transform="translate(957.8908,-628.55718)" />
    <use
       id="use7080"
       xlink:href="#path6628-56"
       x="0"
       y="0"
       width="1600"
       height="1200"
       transform="translate(856.94619,-518.34478)" />
    <use
       id="use7082"
       xlink:href="#path6628-56"
       x="0"
       y="0"
       width="1600"
       height="1200"
       transform="translate(784.02498,-549.10336)" />
    <use
       id="use7084"
       xlink:href="#path6628-56"
       x="0"
       y="0"
       width="1600"
       height="1200"
       transform="translate(652.7092,-500.15442)" />
    <use
       id="use7086"
       xlink:href="#path6628-56"
       x="0"
       y="0"
       width="1600"
       height="1200"
       transform="translate(572.89438,-467.02099)" />
    <use
       id="use7088"
       xlink:href="#path6628-56"
       x="0"
       y="0"
       width="1600"
       height="1200"
       transform="translate(210.59947,-192.23207)" />
    <use
       id="use7090"
       xlink:href="#path6628-56"
       x="0"
       y="0"
       width="1600"
       height="1200"
       transform="translate(311.58889,-17.3959)" />
    <use
       id="use7092"
       xlink:href="#path6628-56"
       x="0"
       y="0"
       width="1600"
       height="1200"
       transform="translate(361.46654,-149.9198)" />
    <use
       id="use7094"
       xlink:href="#path6628-56"
       x="0"
       y="0"
       width="1600"
       height="1200"
       transform="translate(248.24751,4.0620705)" />
    <use
       id="use7096"
       xlink:href="#path6628-56"
       x="0"
       y="0"
       width="1600"
       height="1200"
       transform="translate(215.24492,-138.86835)" />
    <use
       id="use7098"
       xlink:href="#path6628-56"
       x="0"
       y="0"
       width="1600"
       height="1200"
       transform="translate(156.45381,-9.9447201)" />
    <use
       id="use7100"
       xlink:href="#path6628-56"
       x="0"
       y="0"
       width="1600"
       height="1200"
       transform="translate(29.906969,-3.7897195)" />
    <use
       id="use7102"
       xlink:href="#path6628-56"
       x="0"
       y="0"
       width="1600"
       height="1200"
       transform="translate(44.207773,117.64859)" />
  </g>
</svg>
